<svg xmlns="http://www.w3.org/2000/svg" xmlns:xlink="http://www.w3.org/1999/xlink" version="1.1" baseProfile="full" viewBox="0 0 200 200" width="200" height="200">
<g fill="black">
<path d="M 152.8 167.2 L 143.2 155.3 L 134.9 141.9 L 127.7 127.1 L 121.8 110.9 L 117.0 93.3 L 113.4 74.3 L 111.1 53.9 L 110.14566211700439 33.0 L 62.0 33.0 L 62.0 29.0 L 98.0 29.0 L 108.0 19.0 L 120.0 29.0 L 120.0 33.0 L 112.06962614059448 33.0 L 115.2 53.3 L 119.2 73.2 L 124.0 91.5 L 129.6 108.2 L 136.2 123.3 L 143.7 136.8 L 152.1 148.7 L 161.3 159.1 L 171.4 167.9 L 182.4 175.3 L 186.6 177.9 L 175.5 186.6 L 163.5 177.7 Z "/>
</g>
</svg>